<svg width="194" height="74" viewBox="0 0 194 74" fill="none" xmlns="http://www.w3.org/2000/svg">
<circle cx="30.3804" cy="18.3686" r="14" transform="rotate(25 30.3804 18.3686)" fill="#FF4F03"/>
<circle cx="56.2168" cy="30.3784" r="14" transform="rotate(25 56.2168 30.3784)" fill="url(#paint0_linear_311_7422)"/>
<circle cx="19.2184" cy="43.5288" r="14" transform="rotate(25 19.2184 43.5288)" fill="url(#paint1_linear_311_7422)"/>
<circle cx="44.2184" cy="55.5659" r="14" transform="rotate(25 44.2184 55.5659)" fill="#FF4F03"/>
<path d="M92.8303 47V26.6364H100.467C102.031 26.6364 103.344 26.9081 104.404 27.4517C105.471 27.9953 106.277 28.7576 106.82 29.7386C107.371 30.7131 107.646 31.8499 107.646 33.1491C107.646 34.455 107.367 35.5885 106.81 36.5497C106.26 37.5043 105.448 38.2434 104.374 38.767C103.301 39.2841 101.981 39.5426 100.417 39.5426H94.9781V36.4801H99.9198C100.835 36.4801 101.584 36.3542 102.167 36.1023C102.75 35.8437 103.181 35.4692 103.46 34.9787C103.745 34.4815 103.887 33.8717 103.887 33.1491C103.887 32.4266 103.745 31.8101 103.46 31.2997C103.175 30.7827 102.74 30.3916 102.157 30.1264C101.574 29.8546 100.821 29.7188 99.8999 29.7188H96.5193V47H92.8303ZM103.35 37.7727L108.391 47H104.275L99.3232 37.7727H103.35ZM117.425 47.2983C115.894 47.2983 114.571 46.9801 113.457 46.3438C112.35 45.7008 111.499 44.7926 110.902 43.6193C110.305 42.4394 110.007 41.0507 110.007 39.4531C110.007 37.8821 110.305 36.5033 110.902 35.3168C111.505 34.1236 112.347 33.1955 113.428 32.5327C114.508 31.8632 115.778 31.5284 117.236 31.5284C118.177 31.5284 119.065 31.6809 119.901 31.9858C120.742 32.2841 121.485 32.7481 122.128 33.3778C122.778 34.0076 123.288 34.8097 123.659 35.7841C124.03 36.7519 124.216 37.9053 124.216 39.2443V40.348H111.698V37.9219H120.766C120.759 37.2325 120.61 36.6193 120.318 36.0824C120.027 35.5388 119.619 35.1113 119.095 34.7997C118.578 34.4882 117.975 34.3324 117.286 34.3324C116.55 34.3324 115.903 34.5114 115.347 34.8693C114.79 35.2206 114.356 35.6847 114.044 36.2614C113.739 36.8314 113.583 37.4579 113.577 38.1406V40.2585C113.577 41.1468 113.739 41.9091 114.064 42.5455C114.389 43.1752 114.843 43.6591 115.426 43.9972C116.01 44.3286 116.692 44.4943 117.475 44.4943C117.998 44.4943 118.472 44.4214 118.896 44.2756C119.321 44.1231 119.689 43.901 120 43.6094C120.312 43.3177 120.547 42.9564 120.706 42.5256L124.067 42.9034C123.855 43.7917 123.45 44.5672 122.854 45.2301C122.264 45.8864 121.508 46.3968 120.587 46.7614C119.665 47.1193 118.611 47.2983 117.425 47.2983ZM131.656 47.3082C130.688 47.3082 129.816 47.1359 129.041 46.7912C128.272 46.4399 127.662 45.9228 127.211 45.2401C126.767 44.5573 126.545 43.7154 126.545 42.7145C126.545 41.8527 126.704 41.1402 127.022 40.5767C127.341 40.0133 127.775 39.5625 128.325 39.2244C128.875 38.8864 129.495 38.6312 130.184 38.4588C130.88 38.2798 131.6 38.1506 132.342 38.071C133.237 37.9782 133.963 37.8954 134.52 37.8224C135.076 37.7429 135.481 37.6236 135.733 37.4645C135.991 37.2988 136.12 37.0436 136.12 36.6989V36.6392C136.12 35.8902 135.898 35.3101 135.454 34.8991C135.01 34.4882 134.37 34.2827 133.535 34.2827C132.654 34.2827 131.954 34.4749 131.437 34.8594C130.927 35.2438 130.582 35.6979 130.403 36.2216L127.042 35.7443C127.307 34.8163 127.745 34.0407 128.355 33.4176C128.965 32.7879 129.71 32.3172 130.592 32.0057C131.474 31.6875 132.448 31.5284 133.515 31.5284C134.251 31.5284 134.984 31.6146 135.713 31.7869C136.442 31.9593 137.108 32.2443 137.711 32.642C138.315 33.0331 138.798 33.5668 139.163 34.2429C139.534 34.919 139.72 35.7642 139.72 36.7784V47H136.26V44.902H136.14C135.922 45.3262 135.613 45.724 135.216 46.0952C134.825 46.4598 134.331 46.7547 133.734 46.9801C133.144 47.1989 132.451 47.3082 131.656 47.3082ZM132.591 44.6634C133.313 44.6634 133.94 44.5208 134.47 44.2358C135 43.9441 135.408 43.5597 135.693 43.0824C135.985 42.6051 136.13 42.0848 136.13 41.5213V39.7216C136.018 39.8144 135.825 39.9006 135.554 39.9801C135.289 40.0597 134.99 40.1293 134.659 40.1889C134.327 40.2486 133.999 40.3016 133.674 40.348C133.35 40.3944 133.068 40.4342 132.829 40.4673C132.292 40.5402 131.812 40.6596 131.388 40.8253C130.963 40.991 130.629 41.223 130.383 41.5213C130.138 41.813 130.015 42.1908 130.015 42.6548C130.015 43.3177 130.257 43.8182 130.741 44.1562C131.225 44.4943 131.842 44.6634 132.591 44.6634ZM149.007 47.2685C147.807 47.2685 146.733 46.9602 145.785 46.3438C144.837 45.7273 144.088 44.8324 143.538 43.6591C142.988 42.4858 142.713 41.0606 142.713 39.3835C142.713 37.6866 142.991 36.2547 143.548 35.0881C144.111 33.9148 144.87 33.0298 145.825 32.4332C146.78 31.83 147.843 31.5284 149.017 31.5284C149.912 31.5284 150.647 31.6809 151.224 31.9858C151.801 32.2841 152.258 32.6454 152.596 33.0696C152.934 33.4872 153.196 33.8816 153.382 34.2528H153.531V26.6364H157.14V47H153.601V44.5938H153.382C153.196 44.965 152.928 45.3594 152.576 45.777C152.225 46.188 151.761 46.5393 151.184 46.831C150.608 47.1226 149.882 47.2685 149.007 47.2685ZM150.011 44.3153C150.773 44.3153 151.423 44.1098 151.96 43.6989C152.497 43.2812 152.905 42.7012 153.183 41.9588C153.461 41.2164 153.601 40.3513 153.601 39.3636C153.601 38.3759 153.461 37.5175 153.183 36.7884C152.911 36.0592 152.507 35.4924 151.97 35.0881C151.44 34.6837 150.787 34.4815 150.011 34.4815C149.209 34.4815 148.539 34.6903 148.003 35.108C147.466 35.5256 147.061 36.1023 146.789 36.8381C146.518 37.5739 146.382 38.4157 146.382 39.3636C146.382 40.3182 146.518 41.17 146.789 41.919C147.068 42.6615 147.476 43.2481 148.013 43.679C148.556 44.1032 149.222 44.3153 150.011 44.3153ZM166.644 47.2685C165.444 47.2685 164.37 46.9602 163.422 46.3438C162.474 45.7273 161.725 44.8324 161.175 43.6591C160.625 42.4858 160.35 41.0606 160.35 39.3835C160.35 37.6866 160.628 36.2547 161.185 35.0881C161.748 33.9148 162.507 33.0298 163.462 32.4332C164.416 31.83 165.48 31.5284 166.653 31.5284C167.548 31.5284 168.284 31.6809 168.861 31.9858C169.438 32.2841 169.895 32.6454 170.233 33.0696C170.571 33.4872 170.833 33.8816 171.019 34.2528H171.168V26.6364H174.777V47H171.237V44.5938H171.019C170.833 44.965 170.564 45.3594 170.213 45.777C169.862 46.188 169.398 46.5393 168.821 46.831C168.244 47.1226 167.519 47.2685 166.644 47.2685ZM167.648 44.3153C168.41 44.3153 169.06 44.1098 169.597 43.6989C170.134 43.2812 170.541 42.7012 170.82 41.9588C171.098 41.2164 171.237 40.3513 171.237 39.3636C171.237 38.3759 171.098 37.5175 170.82 36.7884C170.548 36.0592 170.144 35.4924 169.607 35.0881C169.076 34.6837 168.423 34.4815 167.648 34.4815C166.846 34.4815 166.176 34.6903 165.639 35.108C165.102 35.5256 164.698 36.1023 164.426 36.8381C164.154 37.5739 164.019 38.4157 164.019 39.3636C164.019 40.3182 164.154 41.17 164.426 41.919C164.705 42.6615 165.112 43.2481 165.649 43.679C166.193 44.1032 166.859 44.3153 167.648 44.3153ZM180.85 52.7273C180.359 52.7273 179.905 52.6875 179.488 52.608C179.077 52.535 178.749 52.4489 178.503 52.3494L179.338 49.5455C179.862 49.6979 180.33 49.7708 180.74 49.7642C181.151 49.7576 181.513 49.6283 181.824 49.3764C182.142 49.1312 182.411 48.7202 182.63 48.1435L182.938 47.3182L177.4 31.7273H181.218L184.738 43.2614H184.897L188.427 31.7273H192.255L186.14 48.8494C185.855 49.6581 185.477 50.3509 185.006 50.9276C184.535 51.5109 183.959 51.955 183.276 52.2599C182.6 52.5715 181.791 52.7273 180.85 52.7273Z" fill="#1E1E1E"/>
<defs>
<linearGradient id="paint0_linear_311_7422" x1="51.4668" y1="21.1284" x2="71.9668" y2="31.6284" gradientUnits="userSpaceOnUse">
<stop offset="0.03125" stop-color="#494949"/>
<stop offset="0.947917" stop-color="#1E1D1C"/>
</linearGradient>
<linearGradient id="paint1_linear_311_7422" x1="14.4684" y1="34.2788" x2="34.9684" y2="44.7788" gradientUnits="userSpaceOnUse">
<stop offset="0.03125" stop-color="#494949"/>
<stop offset="0.947917" stop-color="#1E1D1C"/>
</linearGradient>
</defs>
</svg>
